<svg xmlns="http://www.w3.org/2000/svg" viewBox="0 0 64 64"><defs><clipPath id="l"><rect x="-4" y="-4" width="28" height="32"/></clipPath><clipPath id="r"><rect x="24" y="-4" width="28" height="32"/></clipPath></defs><rect width="64" height="64" rx="14" fill="#0B0D10"/><g transform="translate(1.7 16.9) scale(1.26)" fill="none" stroke-width="6"><path d="M24 12C28 6.5 32 4 36 4C40.4 4 44 7.6 44 12C44 16.4 40.4 20 36 20C32 20 28 17.5 24 12C20 6.5 16 4 12 4C7.6 4 4 7.6 4 12C4 16.4 7.6 20 12 20C16 20 20 17.5 24 12Z" stroke="#2B5BFF" clip-path="url(#r)"/><path d="M24 12C28 6.5 32 4 36 4C40.4 4 44 7.6 44 12C44 16.4 40.4 20 36 20C32 20 28 17.5 24 12C20 6.5 16 4 12 4C7.6 4 4 7.6 4 12C4 16.4 7.6 20 12 20C16 20 20 17.5 24 12Z" stroke="#C6F432" clip-path="url(#l)"/></g></svg>
